<svg width="100" height="100" viewBox="0 0 100 100" fill="none" xmlns="http://www.w3.org/2000/svg">
<path d="M49.545 99.3437C22.2224 99.3437 -0.00012207 77.1108 -0.00012207 49.7985C-0.00012207 22.4863 22.2328 0.253418 49.545 0.253418C76.8573 0.253418 99.0901 22.4863 99.0901 49.7985C99.0901 77.1108 76.8573 99.3437 49.545 99.3437ZM49.545 3.55294C24.0439 3.55294 3.29946 24.2974 3.29946 49.7985C3.29946 75.2997 24.0439 96.0441 49.545 96.0441C75.0462 96.0441 95.7906 75.2997 95.7906 49.7985C95.7906 24.2974 75.0462 3.55294 49.545 3.55294Z" fill="white"/>
<path d="M81.8732 14.4444L66.5349 29.7827L69.5525 32.8003L84.8908 17.462L81.8732 14.4444Z" fill="white"/>
<path d="M29.0763 67.2433L13.738 82.5815L16.7556 85.5991L32.0939 70.2609L29.0763 67.2433Z" fill="white"/>
<path d="M70.0173 67.2405L66.9998 70.2581L82.338 85.5963L85.3556 82.5787L70.0173 67.2405Z" fill="white"/>
<path d="M16.7673 13.9795L13.7498 16.9971L29.0807 32.328L32.0983 29.3104L16.7673 13.9795Z" fill="white"/>
<path d="M61.641 51.1309C62.6402 50.1317 62.6402 48.5183 61.641 47.5295L59.5176 45.4165C58.5183 44.4173 56.905 44.4173 55.9162 45.4165L54.7712 46.5615L53.4494 45.2396C52.4501 44.2404 50.8368 44.2404 49.848 45.2396L48.703 46.395L47.3811 45.0627C46.3819 44.0634 44.7685 44.0634 43.7797 45.0627L36.7539 52.0885C36.7018 52.1405 36.7018 52.2238 36.7539 52.2863C37.6907 53.223 39.2208 53.223 40.1679 52.2863L44.6957 47.7585C45.1849 47.2693 45.9759 47.2693 46.4652 47.7585L46.7982 48.0916C46.8607 48.154 46.8607 48.2477 46.7982 48.3101L43.0199 52.0885C42.9679 52.1405 42.9679 52.2238 43.0199 52.2863C43.9567 53.223 45.4867 53.223 46.4339 52.2863L50.7743 47.9459C51.2635 47.4567 52.0546 47.4567 52.5438 47.9459L52.8768 48.2789C52.9289 48.331 52.9289 48.4142 52.8768 48.4767L49.2338 52.1197C49.1818 52.1718 49.1818 52.255 49.2338 52.3175C50.1706 53.2543 51.7007 53.2543 52.6479 52.3175L56.8425 48.1228C57.3317 47.6336 58.1228 47.6336 58.612 48.1228L59.3302 48.841C59.6112 49.122 59.6112 49.5904 59.3302 49.8714L59.2157 49.986C58.9347 50.267 58.4663 50.267 58.1853 49.986L57.2589 49.0596C57.2069 49.0075 57.1236 49.0075 57.0611 49.0596L55.4582 50.6625C55.4062 50.7145 55.4062 50.7978 55.4582 50.8603L56.905 52.3071C57.9043 53.3063 59.5176 53.3063 60.5064 52.3071L61.6514 51.1621L61.641 51.1309Z" fill="white"/>
<path d="M49.5462 11.7966C28.5624 11.7966 11.5547 28.8043 11.5547 49.7882C11.5547 70.772 28.5624 87.7796 49.5462 87.7796C70.53 87.7796 87.5377 70.772 87.5377 49.7882C87.5377 28.8043 70.53 11.7966 49.5462 11.7966ZM51.0971 23.5272C57.1965 23.881 62.7339 26.3167 67.0223 30.1262L61.5369 35.6116C58.6745 33.1864 55.0628 31.6147 51.0971 31.2816V23.5272ZM48.0057 23.5272V31.2816C44.04 31.6043 40.4282 33.1864 37.5659 35.6116L32.0805 30.1262C36.3688 26.3167 41.9062 23.881 48.0057 23.5272ZM29.8947 32.312L35.38 37.7974C32.9548 40.6598 31.3831 44.2716 31.05 48.2373H23.2956C23.6495 42.1378 26.0851 36.6004 29.8947 32.312ZM23.2956 51.3286H31.05C31.3727 55.2943 32.9548 58.9061 35.38 61.7685L29.8947 67.2538C26.0851 62.9655 23.6495 57.4281 23.2956 51.3286ZM48.0057 76.0387C41.9062 75.6848 36.3688 73.2492 32.0805 69.4396L37.5659 63.9543C40.4282 66.3795 44.04 67.9512 48.0057 68.2843V76.0387ZM33.5793 49.7777C33.5793 40.9616 40.7301 33.8109 49.5462 33.8109C58.3623 33.8109 65.513 40.9616 65.513 49.7777C65.513 58.5938 58.3623 65.7446 49.5462 65.7446C40.7301 65.7446 33.5793 58.5938 33.5793 49.7777ZM51.0971 76.0387V68.2843C55.0628 67.9616 58.6745 66.3795 61.5369 63.9543L67.0223 69.4396C62.7339 73.2492 57.1965 75.6848 51.0971 76.0387ZM69.2081 67.2538L63.7228 61.7685C66.148 58.9061 67.7197 55.2943 68.0527 51.3286H75.8072C75.4533 57.4281 73.0176 62.9655 69.2081 67.2538ZM68.0527 48.2373C67.7301 44.2716 66.148 40.6598 63.7228 37.7974L69.2081 32.312C73.0176 36.6004 75.4533 42.1378 75.8072 48.2373H68.0527Z" fill="white"/>
</svg>
