<svg width="100" height="100" viewBox="0 0 100 100" fill="none" xmlns="http://www.w3.org/2000/svg">
<path d="M49.5528 99.6273C36.8542 99.6273 24.1661 94.7977 14.4965 85.1281C-4.83233 65.7992 -4.83233 34.3548 14.4965 15.0259C23.8643 5.65815 36.313 0.505859 49.5528 0.505859C62.7926 0.505859 75.2413 5.65815 84.6091 15.0259C103.938 34.3548 103.938 65.7992 84.6091 85.1281C74.9499 94.7873 62.2513 99.6273 49.5528 99.6273ZM17.0987 82.5259C34.9911 100.418 64.104 100.418 81.9965 82.5259C99.8889 64.6335 99.8889 35.5205 81.9965 17.6281C73.3261 8.95768 61.8037 4.19049 49.5424 4.19049C37.281 4.19049 25.7586 8.96809 17.0882 17.6281C-0.8042 35.5205 -0.8042 64.6335 17.0882 82.5259H17.0987Z" fill="#DA7DB5"/>
<path d="M51.3872 39.6426L42.2068 52.5076H47.7129V61.6881L56.8934 48.8334H51.3872V39.6426Z" fill="#DA7DB5"/>
<path d="M49.543 32.4917C39.4883 32.4917 31.3279 40.6521 31.3279 50.7068C31.3279 60.7616 39.4883 68.9011 49.543 68.9011C59.5977 68.9011 67.7581 60.7407 67.7581 50.7068C67.7581 40.6729 59.5977 32.4917 49.543 32.4917ZM49.543 66.6528C40.7165 66.6528 33.5553 59.4917 33.5553 50.6652C33.5553 41.8387 40.7165 34.6776 49.543 34.6776C58.3695 34.6776 65.5307 41.8387 65.5307 50.6652C65.5307 59.4917 58.3695 66.6528 49.543 66.6528Z" fill="#DA7DB5"/>
<path d="M77.7 21.927C70.1849 14.4015 60.1822 10.2693 49.5446 10.2693C38.9069 10.2693 28.9147 14.4119 21.3892 21.927C5.86994 37.4462 5.86994 62.708 21.3892 78.2377C29.1541 86.0025 39.3441 89.8849 49.5446 89.8849C59.745 89.8849 69.9351 86.0025 77.7 78.2377C93.2192 62.7184 93.2192 37.4567 77.7 21.927ZM49.5446 75.417C35.9301 75.417 24.8449 64.3317 24.8449 50.7172C24.8449 44.701 26.9995 39.1845 30.5801 34.8753L27.5615 31.8568C26.6976 30.9929 26.6976 29.5877 27.5615 28.7134C28.4254 27.8391 29.8306 27.8495 30.705 28.7134L33.7235 31.7319C37.4706 28.5989 42.1856 26.538 47.3275 26.1008V24.0607H45.2875C43.4868 24.0607 41.9983 22.5723 41.9983 20.7716V19.0542C41.9983 17.2327 43.4868 15.7651 45.2875 15.7651H53.8226C55.6232 15.7651 57.1117 17.2327 57.1117 19.0542V20.7716C57.1117 22.5723 55.6232 24.0607 53.8226 24.0607H51.7824V26.1008C56.9347 26.5484 61.6394 28.6093 65.3865 31.7319L68.405 28.7134C69.2689 27.8495 70.6741 27.8495 71.5484 28.7134C72.4123 29.5773 72.4123 30.9825 71.5484 31.8568L68.5299 34.8753C72.1105 39.1845 74.2651 44.6906 74.2651 50.7172C74.2651 64.3317 63.1799 75.417 49.5654 75.417H49.5446Z" fill="#DA7DB5"/>
</svg>
